<svg width="675" height="274" xmlns="http://www.w3.org/2000/svg" xmlns:xlink="http://www.w3.org/1999/xlink" xml:space="preserve" overflow="hidden"><defs><clipPath id="clip0"><rect x="302" y="283" width="675" height="274"/></clipPath></defs><g clip-path="url(#clip0)" transform="translate(-302 -283)"><text font-family="Gill Sans MT Condensed,Gill Sans MT Condensed_MSFontService,sans-serif" font-weight="400" font-stretch="condensed" font-size="48" transform="matrix(0.999999 0 0 0.999999 315.71 500)">Factor </text><text font-family="Gill Sans MT Condensed,Gill Sans MT Condensed_MSFontService,sans-serif" font-weight="400" font-stretch="condensed" font-size="48" transform="matrix(0.999999 0 0 0.999999 301.038 545)">genético</text><text font-family="Gill Sans MT Condensed,Gill Sans MT Condensed_MSFontService,sans-serif" font-weight="400" font-stretch="condensed" font-size="37" transform="matrix(0.999999 0 0 0.999999 413.038 545)"> </text><text font-family="Gill Sans MT Condensed,Gill Sans MT Condensed_MSFontService,sans-serif" font-weight="400" font-stretch="condensed" font-size="48" transform="matrix(0.999999 0 0 0.999999 608.336 504)">Factor </text><text font-family="Gill Sans MT Condensed,Gill Sans MT Condensed_MSFontService,sans-serif" font-weight="400" font-stretch="condensed" font-size="48" transform="matrix(0.999999 0 0 0.999999 582.942 549)">ambiental</text><text font-family="Gill Sans MT Condensed,Gill Sans MT Condensed_MSFontService,sans-serif" font-weight="400" font-stretch="condensed" font-size="37" transform="matrix(0.999999 0 0 0.999999 715.942 549)"> </text><text font-family="Gill Sans MT Condensed,Gill Sans MT Condensed_MSFontService,sans-serif" font-weight="400" font-stretch="condensed" font-size="48" transform="matrix(0.999999 0 0 0.999999 887.498 528)">Cancer</text><text font-family="Calibri,Calibri_MSFontService,sans-serif" font-weight="700" font-size="85" transform="matrix(0.999999 0 0 0.999999 333.502 452)">A</text><text font-family="Calibri,Calibri_MSFontService,sans-serif" font-weight="700" font-size="85" transform="matrix(0.999999 0 0 0.999999 626.791 453)">Y</text><text font-family="Calibri,Calibri_MSFontService,sans-serif" font-weight="700" font-size="85" transform="matrix(0.999999 0 0 0.999999 917.807 452)">L</text><path d="M372.759 367.727C548.507 268.884 724.255 254.117 900.003 371.594" stroke="#000000" stroke-width="11.3386" fill="none"/><path d="M888.691 364.033 872.964 367.158 912.258 379.786 885.566 348.305Z" fill-rule="evenodd"/><path d="M682.143 425.738 890.977 425.738" stroke="#000000" stroke-width="11.3386" fill="none"/><path d="M877.371 425.738 866.033 437.076 905.718 425.738 866.033 414.399Z" fill-rule="evenodd"/></g></svg>