<svg width="784" height="161" xmlns="http://www.w3.org/2000/svg" xmlns:xlink="http://www.w3.org/1999/xlink" xml:space="preserve" overflow="hidden"><defs><clipPath id="clip0"><rect x="248" y="340" width="784" height="161"/></clipPath></defs><g clip-path="url(#clip0)" transform="translate(-248 -340)"><text font-family="Gill Sans MT Condensed,Gill Sans MT Condensed_MSFontService,sans-serif" font-weight="400" font-stretch="condensed" font-size="48" transform="matrix(0.999999 0 0 0.999999 245.21 476)">Fumador</text><text font-family="Calibri,Calibri_MSFontService,sans-serif" font-weight="700" font-size="85" transform="matrix(1.10537 0 0 1.10537 621.43 400)">B</text><text font-family="Calibri,Calibri_MSFontService,sans-serif" font-weight="700" font-size="85" transform="matrix(1.10537 0 0 1.10537 943.458 400)">Y</text><text font-family="Calibri,Calibri_MSFontService,sans-serif" font-weight="700" font-size="85" transform="matrix(1.10537 0 0 1.10537 277.585 400)">A</text><path d="M351.406 370.205 382.754 370.205 412.678 370.205 448.301 370.205 477.514 370.205 514.558 370.205 545.198 370.205 582.247 370.205" stroke="#000000" stroke-width="12.5333" fill="none"/><path d="M567.207 370.205 554.673 382.739 598.54 370.205 554.673 357.672Z" fill-rule="evenodd"/><path d="M684.585 370.205 715.931 370.205 745.857 370.205 781.481 370.205 810.692 370.205 847.74 370.205 878.376 370.205 915.424 370.205" stroke="#000000" stroke-width="12.5333" fill="none"/><path d="M900.384 370.205 887.851 382.739 931.718 370.205 887.851 357.672Z" fill-rule="evenodd"/><text font-family="Gill Sans MT Condensed,Gill Sans MT Condensed_MSFontService,sans-serif" font-weight="400" font-stretch="condensed" font-size="48" transform="matrix(0.999999 0 0 0.999999 557.301 476)">Daño celular</text><text font-family="Gill Sans MT Condensed,Gill Sans MT Condensed_MSFontService,sans-serif" font-weight="400" font-stretch="condensed" font-size="48" transform="matrix(0.999999 0 0 0.999999 922.481 451)">Cancer </text><text font-family="Gill Sans MT Condensed,Gill Sans MT Condensed_MSFontService,sans-serif" font-weight="400" font-stretch="condensed" font-size="48" transform="matrix(0.999999 0 0 0.999999 902.724 490)">pulmonar</text></g></svg>