<svg width="645" height="471" xmlns="http://www.w3.org/2000/svg" xmlns:xlink="http://www.w3.org/1999/xlink" xml:space="preserve" overflow="hidden"><defs><clipPath id="clip0"><rect x="579" y="102" width="645" height="471"/></clipPath></defs><g clip-path="url(#clip0)" transform="translate(-579 -102)"><path d="M365.575 323.454 428.357 352.064" stroke="#000000" stroke-width="4.54235" fill="none" transform="matrix(1 0 0 1.00028 583.897 90.8707)"/><path d="M0 0 4.54257-4.54257-11.3564 0 4.54257 4.54257Z" fill-rule="evenodd" transform="matrix(-0.909926 -0.414771 0.414656 -0.910178 1007.29 440.771)"/><path d="M440.279 127.951 385.319 163.841" stroke="#000000" stroke-width="4.54235" fill="none" transform="matrix(1 0 0 1.00028 583.897 90.8707)"/><path d="M0 0 4.54273-4.54273-11.3568 0 4.54273 4.54273Z" fill-rule="evenodd" transform="matrix(0.837216 -0.546873 0.546721 0.837448 973.78 251.776)"/><path d="M194.966 127.951 249.888 163.841" stroke="#000000" stroke-width="4.54235" fill="none" transform="matrix(1 0 0 1.00028 583.897 90.8707)"/><path d="M0 0 4.54273-4.54273-11.3568 0 4.54273 4.54273Z" fill-rule="evenodd" transform="matrix(-0.837042 -0.547139 0.546987 -0.837274 829.223 251.775)"/><path d="M150.204 155.767 309.148 295.639" stroke="#000000" stroke-width="4.54235" fill="none" transform="matrix(1 0 0 1.00028 583.897 90.8707)"/><path d="M0 0 4.5429-4.5429-11.3573 0 4.5429 4.5429Z" fill-rule="evenodd" transform="matrix(-0.75062 -0.660735 0.660552 -0.750828 888.953 382.99)"/><path d="M182.787 158.946C258.215 223.386 359.586 292.387 475.248 350.474" stroke="#000000" stroke-width="4.54235" fill="none" transform="matrix(1 0 0 1.00028 583.897 90.8707)"/><path d="M0 0 4.54261-4.54261-11.3565 0 4.54261 4.54261Z" fill-rule="evenodd" transform="matrix(-0.893583 -0.448898 0.448774 -0.89383 1054.27 438.995)"/><path d="M367.958 185.171 511.805 342.527" stroke="#000000" stroke-width="4.54235" fill="none" transform="matrix(1 0 0 1.00028 583.897 90.8707)"/><path d="M0 0 4.54293-4.54293-11.3573 0 4.54293 4.54293Z" fill-rule="evenodd" transform="matrix(-0.67463 -0.738189 0.737985 -0.674817 1092.02 429.469)"/><path d="M540.415 127.951 542.8 341.733" stroke="#000000" stroke-width="4.54235" fill="none" transform="matrix(1 0 0 1.00028 583.897 90.8707)"/><path d="M0 0 4.54235-4.54235-11.3559 0 4.54235 4.54235Z" fill-rule="evenodd" transform="matrix(-0.0111543 -1.00021 0.999938 -0.0111574 1126.64 427.246)"/><path d="M56.4256 151.793 92.1884 342.527" stroke="#000000" stroke-width="4.54235" fill="none" transform="matrix(1 0 0 1.00028 583.897 90.8707)"/><path d="M0 0 4.5424-4.5424-11.356 0 4.5424 4.5424Z" fill-rule="evenodd" transform="matrix(-0.184287 -0.983135 0.982863 -0.184338 675.081 428.134)"/><path d="M163.714 377.497 189.253 425.58" stroke="#000000" stroke-width="4.54235" fill="none" transform="matrix(1 0 0 1.00028 583.897 90.8707)"/><path d="M0 0 4.54263-4.54263-11.3566 0 4.54263 4.54263Z" fill-rule="evenodd" transform="matrix(-0.469059 -0.883343 0.883098 -0.469188 770.594 511.753)"/><path d="M514.982 127.951 355.244 419.616" stroke="#000000" stroke-width="4.54235" fill="none" transform="matrix(1 0 0 1.00028 583.897 90.8707)"/><path d="M0 0 4.54264-4.54264-11.3566 0 4.54264 4.54264Z" fill-rule="evenodd" transform="matrix(0.480324 -0.877261 0.877018 0.480457 941.759 505.821)"/><path d="M502.466 127.951 329.811 296.434" stroke="#000000" stroke-width="4.54235" fill="none" transform="matrix(1 0 0 1.00028 583.897 90.8707)"/><path d="M0 0 4.54297-4.54297-11.3574 0 4.54297 4.54297Z" fill-rule="evenodd" transform="matrix(0.715604 -0.698506 0.698313 0.715802 917.609 383.579)"/><path d="M278.156 324.249 206.629 352.064" stroke="#000000" stroke-width="4.54235" fill="none" transform="matrix(1 0 0 1.00028 583.897 90.8707)"/><path d="M0 0 4.54252-4.54252-11.3563 0 4.54252 4.54252Z" fill-rule="evenodd" transform="matrix(0.931974 -0.362525 0.362425 0.932232 795.607 441.056)"/><path d="M269.414 185.171 119.209 345.707" stroke="#000000" stroke-width="4.54235" fill="none" transform="matrix(1 0 0 1.00028 583.897 90.8707)"/><path d="M0 0 4.54294-4.54294-11.3573 0 4.54294 4.54294Z" fill-rule="evenodd" transform="matrix(0.683132 -0.73032 0.730118 0.683322 706.83 432.692)"/><path d="M483.99 127.951C394.487 228.794 268.753 299.641 152.588 345.707" stroke="#000000" stroke-width="4.54235" fill="none" transform="matrix(1 0 0 1.00028 583.897 90.8707)"/><path d="M0 0 4.54252-4.54252-11.3563 0 4.54252 4.54252Z" fill-rule="evenodd" transform="matrix(0.929541 -0.368719 0.368617 0.929798 741.552 434.664)"/><path d="M499.523 373.157 446.677 425.58" stroke="#000000" stroke-width="4.54235" fill="none" transform="matrix(1 0 0 1.00028 583.897 90.8707)"/><path d="M0 0 4.54298-4.54298-11.3574 0 4.54298 4.54298Z" fill-rule="evenodd" transform="matrix(0.709841 -0.704362 0.704167 0.710038 1034.44 512.729)"/><path d="M418.821 371.932 218.033 371.932" stroke="#000000" stroke-width="4.54235" fill="none" transform="matrix(1 0 0 1.00028 583.897 90.8707)"/><path d="M0 0 4.54235-4.54235-11.3559 0 4.54235 4.54235Z" fill-rule="evenodd" transform="matrix(-1 1.22499e-16 -1.22465e-16 -1.00028 997.267 462.906)"/><path d="M0 0 4.54235-4.54235-11.3559 0 4.54235 4.54235Z" fill-rule="evenodd" transform="matrix(1 -1.22499e-16 1.22465e-16 1.00028 807.381 462.906)"/><path d="M262.26 54.7379 215.629 91.371" stroke="#000000" stroke-width="4.54235" fill="none" transform="matrix(1 0 0 1.00028 583.897 90.8707)"/><path d="M0 0 4.54283-4.54283-11.3571 0 4.54283 4.54283Z" fill-rule="evenodd" transform="matrix(0.786275 -0.617877 0.617706 0.786493 803.813 178.899)"/><path d="M372.727 54.7379 417.896 97.7514" stroke="#000000" stroke-width="4.54235" fill="none" transform="matrix(1 0 0 1.00028 583.897 90.8707)"/><path d="M0 0 4.54295-4.54295-11.3574 0 4.54295 4.54295Z" fill-rule="evenodd" transform="matrix(-0.72408 -0.689716 0.689525 -0.72428 997.846 184.889)"/><path d="M407.219 11.1262C413.116 11.1262 417.896 15.9065 417.896 21.8034L417.896 55.1869C417.896 61.0837 413.116 65.864 407.219 65.864L228.71 65.864C222.813 65.864 218.033 61.0837 218.033 55.1869L218.033 21.8034C218.033 15.9065 222.813 11.1262 228.71 11.1262Z" fill="#ABC837" transform="matrix(1 0 0 1.00028 583.897 90.8707)"/><path d="M201.542 91.371C209.322 91.371 215.629 97.6783 215.629 105.459L215.629 149.505C215.629 157.286 209.322 163.593 201.542 163.593L9.19044 163.593C1.41006 163.593-4.89719 157.286-4.89719 149.505L-4.89719 105.459C-4.89719 97.6783 1.41006 91.371 9.19044 91.371Z" fill="#7FFF2A" transform="matrix(1 0 0 1.00028 583.897 90.8707)"/><path d="M626.39 76.2711C633.913 76.2711 640.012 82.3701 640.012 89.8937L640.012 132.486C640.012 140.01 633.913 146.109 626.39 146.109L431.519 146.109C423.995 146.109 417.896 140.01 417.896 132.486L417.896 89.8936C417.896 82.3701 423.995 76.2711 431.519 76.2711Z" fill="#D38D5F" transform="matrix(1 0 0 1.00028 583.897 90.8707)"/><path d="M370.593 163.841C378.727 163.841 385.32 170.435 385.32 178.568L385.32 194.071C385.32 202.204 378.727 208.798 370.593 208.798L264.616 208.798C256.482 208.798 249.888 202.204 249.888 194.071L249.888 178.568C249.888 170.435 256.482 163.841 264.616 163.841Z" fill="#9955FF" transform="matrix(1 0 0 1.00028 583.897 90.8707)"/><path d="M369.952 301.91C378.086 301.91 384.68 308.503 384.68 316.637L384.68 332.139C384.68 340.273 378.086 346.866 369.952 346.866L263.975 346.866C255.842 346.866 249.248 340.273 249.248 332.139L249.248 316.637C249.248 308.503 255.842 301.91 263.975 301.91Z" fill="#80FFB3" transform="matrix(1 0 0 1.00028 583.897 90.8707)"/><path d="M552.51 350.679C560.643 350.679 567.237 357.272 567.237 365.406L567.237 380.908C567.237 389.042 560.643 395.635 552.51 395.635L446.532 395.635C438.399 395.635 431.805 389.042 431.805 380.908L431.805 365.406C431.805 357.272 438.399 350.679 446.532 350.679Z" fill="#DEAA87" transform="matrix(1 0 0 1.00028 583.897 90.8707)"/><path d="M188.44 350.679C196.573 350.679 203.167 357.272 203.167 365.406L203.167 380.908C203.167 389.042 196.573 395.635 188.44 395.635L82.4625 395.635C74.3289 395.635 67.7353 389.042 67.7353 380.908L67.7353 365.406C67.7353 357.272 74.3289 350.679 82.4625 350.679Z" fill="#FF5599" transform="matrix(1 0 0 1.00028 583.897 90.8707)"/><path d="M447.522 427.249C453.419 427.249 458.2 432.029 458.2 437.926L458.2 471.31C458.2 477.207 453.419 481.987 447.522 481.987L188.407 481.987C182.51 481.987 177.73 477.207 177.73 471.31L177.73 437.926C177.73 432.029 182.51 427.249 188.407 427.249Z" fill="#A05A2C" transform="matrix(1 0 0 1.00028 583.897 90.8707)"/><text font-family="Calibri,Calibri_MSFontService,sans-serif" font-weight="400" font-size="29" transform="matrix(0.600915 0 0 0.601081 850.598 122)">Composici칩n </text><text font-family="Calibri,Calibri_MSFontService,sans-serif" font-weight="400" font-size="29" transform="matrix(0.600915 0 0 0.601081 867.747 141)">Arborea</text><text font-family="Calibri,Calibri_MSFontService,sans-serif" font-weight="400" font-size="29" transform="matrix(0.600915 0 0 0.601081 609.004 214)">Atributos del arbolado </text><text font-family="Calibri,Calibri_MSFontService,sans-serif" font-weight="400" font-size="29" transform="matrix(0.600915 0 0 0.601081 588.227 232)">(</text><text font-family="Calibri,Calibri_MSFontService,sans-serif" font-weight="400" font-size="29" transform="matrix(0.600915 0 0 0.601081 593.635 232)">estructurales y funcionales</text><text font-family="Calibri,Calibri_MSFontService,sans-serif" font-weight="400" font-size="29" transform="matrix(0.600915 0 0 0.601081 781.722 232)">)</text><text font-family="Calibri,Calibri_MSFontService,sans-serif" font-weight="400" font-size="29" transform="matrix(0.600915 0 0 0.601081 1034.78 197)">Atributos del Mantillo </text><text font-family="Calibri,Calibri_MSFontService,sans-serif" font-weight="400" font-size="29" transform="matrix(0.600915 0 0 0.601081 1011.82 216)">(</text><text font-family="Calibri,Calibri_MSFontService,sans-serif" font-weight="400" font-size="29" transform="matrix(0.600915 0 0 0.601081 1017.22 216)">estructurales y funcionales</text><text font-family="Calibri,Calibri_MSFontService,sans-serif" font-weight="400" font-size="29" transform="matrix(0.600915 0 0 0.601081 1205.31 216)">)</text><text font-family="Calibri,Calibri_MSFontService,sans-serif" font-weight="400" font-size="29" transform="matrix(0.600915 0 0 0.601081 856.348 282)">pH del Suelo</text><text font-family="Calibri,Calibri_MSFontService,sans-serif" font-weight="400" font-size="29" transform="matrix(0.600915 0 0 0.601081 855.184 412)">Composici칩n </text><text font-family="Calibri,Calibri_MSFontService,sans-serif" font-weight="400" font-size="29" transform="matrix(0.600915 0 0 0.601081 849.654 431)">flora herb치cea</text><text font-family="Calibri,Calibri_MSFontService,sans-serif" font-weight="400" font-size="29" transform="matrix(0.600915 0 0 0.601081 1059.88 460)">Fauna  </text><text font-family="Calibri,Calibri_MSFontService,sans-serif" font-weight="400" font-size="29" transform="matrix(0.600915 0 0 0.601081 1050.63 479)">del Suelo</text><text font-family="Calibri,Calibri_MSFontService,sans-serif" font-weight="400" font-size="29" transform="matrix(0.600915 0 0 0.601081 677.381 461)">Microfbiota </text><text font-family="Calibri,Calibri_MSFontService,sans-serif" font-weight="400" font-size="29" transform="matrix(0.600915 0 0 0.601081 687.089 479)">del suelo</text><text font-family="Calibri,Calibri_MSFontService,sans-serif" font-weight="700" font-size="37" transform="matrix(0.600915 0 0 0.601081 778.586 551)">Descomposici칩n del Mant</text><text font-family="Calibri,Calibri_MSFontService,sans-serif" font-weight="700" font-size="37" transform="matrix(0.600915 0 0 0.601081 999.122 551)">i</text><text font-family="Calibri,Calibri_MSFontService,sans-serif" font-weight="700" font-size="37" transform="matrix(0.600915 0 0 0.601081 1002.73 551)">llo</text></g></svg>