<svg width="465" height="373" xmlns="http://www.w3.org/2000/svg" xmlns:xlink="http://www.w3.org/1999/xlink" xml:space="preserve" overflow="hidden"><defs><clipPath id="clip0"><rect x="753" y="175" width="465" height="373"/></clipPath></defs><g clip-path="url(#clip0)" transform="translate(-753 -175)"><path d="M392.658 80.1443C378.934 56.576 338.533 36.3829 282.817 46.3674" stroke="#000000" stroke-width="4.39864" fill="none" transform="matrix(1.00138 0 0 1 632.874 147.483)"/><path d="M0 0 4.39883-4.39883-10.9971 0 4.39883 4.39883Z" fill-rule="evenodd" transform="matrix(0.985636 -0.176387 0.176631 0.984277 921.285 192.919)"/><path d="M154.913 174.982C191.088 251.996 231.87 342.28 320.533 368.824" stroke="#000000" stroke-width="4.39864" fill="none" transform="matrix(1.00138 0 0 1 632.874 147.483)"/><path d="M0 0 4.39914-4.39914-10.9979 0 4.39914 4.39914Z" fill-rule="evenodd" transform="matrix(-0.959205 -0.286766 0.287162 -0.957882 948.787 514.793)"/><path d="M367.091 366.515C422.507 341.568 476.811 313.621 477.53 260.312" stroke="#000000" stroke-width="4.39864" fill="none" transform="matrix(1.00138 0 0 1 632.874 147.483)"/><path d="M0 0 4.39864-4.39864-10.9966 0 4.39864 4.39864Z" fill-rule="evenodd" transform="matrix(-0.0135081 0.999909 -1.00129 -0.0134894 1110.99 413.073)"/><path d="M154.913 174.982C254.34 175.071 356.939 160.691 444.437 198.553" stroke="#000000" stroke-width="4.39864" fill="none" transform="matrix(1.00138 0 0 1 632.874 147.483)"/><path d="M0 0 4.3996-4.3996-10.999 0 4.3996 4.3996Z" fill-rule="evenodd" transform="matrix(-0.918831 -0.397041 0.397589 -0.917564 1073.07 343.94)"/><path d="M550.314 94.8512 511.39 182.584" stroke="#000000" stroke-width="4.39864" fill="none" transform="matrix(1.00138 0 0 1 632.874 147.483)"/><path d="M0 0 4.39964-4.39964-10.9991 0 4.39964 4.39964Z" fill-rule="evenodd" transform="matrix(0.406008 -0.913869 0.915131 0.405448 1147.11 325.242)"/><path d="M392.658 80.1443C422.978 97.987 442.49 123.903 469.065 174.118" stroke="#000000" stroke-width="4.39864" fill="none" transform="matrix(1.00138 0 0 1 632.874 147.483)"/><path d="M0 0 4.39997-4.39997-10.9999 0 4.39997 4.39997Z" fill-rule="evenodd" transform="matrix(-0.46825 -0.883596 0.884816 -0.467605 1100.11 316.936)"/><path d="M483.299 215.291 398.255 253.386" stroke="#000000" stroke-width="4.39864" fill="none" transform="matrix(1.00138 0 0 1 632.874 147.483)"/><path d="M0 0 4.39965-4.39965-10.9991 0 4.39965 4.39965Z" fill-rule="evenodd" transform="matrix(0.913671 -0.408712 0.409276 0.912411 1036.5 398.711)"/><path d="M154.913 174.982 312.068 260.312" stroke="#000000" stroke-width="4.39864" fill="none" transform="matrix(1.00138 0 0 1 632.874 147.483)"/><path d="M0 0 4.40002-4.40002-11.0001 0 4.40002 4.40002Z" fill-rule="evenodd" transform="matrix(-0.879753 -0.477012 0.477671 -0.87854 940.728 405.276)"/><path d="M154.9 362.76 154.202 222.774" stroke="#000000" stroke-width="4.39864" fill="none" transform="matrix(1.00138 0 0 1 632.874 147.483)"/><path d="M0 0 4.39864-4.39864-10.9966 0 4.39864 4.39864Z" fill-rule="evenodd" transform="matrix(0.00498875 0.999988 -1.00137 0.00498187 787.316 375.535)"/><path d="M240.111 61.7591C206.259 73.2064 165.68 81.7679 158.351 127.561" stroke="#000000" stroke-width="4.39864" fill="none" transform="matrix(1.00138 0 0 1 632.874 147.483)"/><path d="M0 0 4.39879-4.39879-10.997 0 4.39879 4.39879Z" fill-rule="evenodd" transform="matrix(0.15824 -0.987401 0.988764 0.158022 792.279 269.832)"/><path d="M517.542 215.291C517.533 234.203 502.197 249.528 483.288 249.522 464.384 249.515 449.064 234.192 449.057 215.291 449.064 196.38 464.4 181.054 483.312 181.061 502.213 181.068 517.533 196.389 517.542 215.291Z" fill="#D38D5F" transform="matrix(1.00138 0 0 1 632.874 147.483)"/><path d="M426.899 80.1443C426.893 99.0556 411.557 114.381 392.645 114.374 373.744 114.367 358.423 99.046 358.417 80.1443 358.423 61.2328 373.759 45.9075 392.671 45.9143 411.572 45.9212 426.893 61.2425 426.899 80.1443Z" fill="#55DDFF" transform="matrix(1.00138 0 0 1 632.874 147.483)"/><path d="M189.155 174.982C189.148 193.894 173.812 209.219 154.901 209.212 135.999 209.205 120.677 193.884 120.671 174.982 120.677 156.071 136.014 140.746 154.925 140.752 173.827 140.759 189.148 156.081 189.155 174.982Z" fill="#AAD400" transform="matrix(1.00138 0 0 1 632.874 147.483)"/><path d="M188.444 362.76C188.438 381.672 173.102 396.997 154.19 396.991 135.288 396.984 119.967 381.664 119.96 362.76 119.967 343.848 135.303 328.524 154.215 328.53 173.116 328.537 188.438 343.859 188.444 362.76Z" fill="#D4AA00" transform="matrix(1.00138 0 0 1 632.874 147.483)"/><path d="M274.352 61.7591C274.352 80.6704 259.021 96.0012 240.111 96.0012 221.199 96.0012 205.868 80.6704 205.868 61.7591 205.868 42.8476 221.199 27.517 240.111 27.517 259.021 27.517 274.352 42.8476 274.352 61.7591Z" fill="#DDAFE9" transform="matrix(1.00138 0 0 1 632.874 147.483)"/><text font-family="Calibri,Calibri_MSFontService,sans-serif" font-weight="700" font-size="43" transform="matrix(0.582706 0 0 0.581903 1109.3 371)">Y</text><text font-family="Calibri,Calibri_MSFontService,sans-serif" font-weight="700" font-size="43" transform="matrix(0.582706 0 0 0.581903 865.778 217)">B</text><text font-family="Calibri,Calibri_MSFontService,sans-serif" font-weight="700" font-size="43" transform="matrix(0.582706 0 0 0.581903 779.751 518)">D</text><text font-family="Calibri,Calibri_MSFontService,sans-serif" font-weight="700" font-size="43" transform="matrix(0.582706 0 0 0.581903 780.463 330)">X</text><text font-family="Calibri,Calibri_MSFontService,sans-serif" font-weight="700" font-size="43" transform="matrix(0.582706 0 0 0.581903 1018.54 235)">A</text><path d="M389.79 270.316C389.783 289.228 374.448 304.553 355.536 304.547 336.635 304.54 321.312 289.217 321.305 270.316 321.312 251.404 336.648 236.079 355.56 236.086 374.463 236.093 389.783 251.415 389.79 270.316Z" fill="#9955FF" transform="matrix(1.00138 0 0 1 632.874 147.483)"/><text font-family="Calibri,Calibri_MSFontService,sans-serif" font-weight="700" font-size="43" transform="matrix(0.582706 0 0 0.581903 981.374 426)">E</text><path d="M584.494 94.8512C584.487 113.763 569.151 129.088 550.239 129.081 531.338 129.074 516.018 113.753 516.011 94.8512 516.018 75.9399 531.354 60.6146 550.266 60.6214 569.167 60.6282 584.487 75.9494 584.494 94.8512Z" fill="#DE8787" transform="matrix(1.00138 0 0 1 632.874 147.483)"/><text font-family="Calibri,Calibri_MSFontService,sans-serif" font-weight="700" font-size="43" transform="matrix(0.582706 0 0 0.581903 1176.35 250)">G</text><path d="M401.334 366.515C401.328 385.427 385.992 400.751 367.08 400.745 348.177 400.738 332.856 385.416 332.85 366.515 332.856 347.603 348.192 332.278 367.104 332.284 386.005 332.291 401.328 347.614 401.334 366.515Z" fill="#FFFF00" transform="matrix(1.00138 0 0 1 632.874 147.483)"/><text font-family="Calibri,Calibri_MSFontService,sans-serif" font-weight="700" font-size="43" transform="matrix(0.582706 0 0 0.581903 992.934 522)">F</text></g></svg>